<svg xmlns="http://www.w3.org/2000/svg" version="1.1" xmlns:xlink="http://www.w3.org/1999/xlink" xmlns:svgjs="http://svgjs.dev/svgjs" viewBox="0 0 1422 600"><defs><linearGradient x1="50%" y1="0%" x2="50%" y2="100%" id="oooscillate-grad"><stop stop-color="hsl(206, 75%, 49%)" stop-opacity="1" offset="0%"></stop><stop stop-color="hsl(331, 90%, 56%)" stop-opacity="1" offset="100%"></stop></linearGradient></defs><g stroke-width="2" stroke="url(#oooscillate-grad)" fill="none" stroke-linecap="round"><path d="M 0 676 Q 355.5 -100 711 400 Q 1066.5 900 1422 676" opacity="0.80"></path><path d="M 0 650 Q 355.5 -100 711 400 Q 1066.5 900 1422 650" opacity="0.94"></path><path d="M 0 624 Q 355.5 -100 711 400 Q 1066.5 900 1422 624" opacity="0.28"></path><path d="M 0 598 Q 355.5 -100 711 400 Q 1066.5 900 1422 598" opacity="0.81"></path><path d="M 0 572 Q 355.5 -100 711 400 Q 1066.5 900 1422 572" opacity="0.52"></path><path d="M 0 546 Q 355.5 -100 711 400 Q 1066.5 900 1422 546" opacity="0.87"></path><path d="M 0 520 Q 355.5 -100 711 400 Q 1066.5 900 1422 520" opacity="0.84"></path><path d="M 0 494 Q 355.5 -100 711 400 Q 1066.5 900 1422 494" opacity="0.57"></path><path d="M 0 468 Q 355.5 -100 711 400 Q 1066.5 900 1422 468" opacity="0.94"></path><path d="M 0 442 Q 355.5 -100 711 400 Q 1066.5 900 1422 442" opacity="0.14"></path><path d="M 0 416 Q 355.5 -100 711 400 Q 1066.5 900 1422 416" opacity="0.09"></path><path d="M 0 390 Q 355.5 -100 711 400 Q 1066.5 900 1422 390" opacity="0.93"></path><path d="M 0 364 Q 355.5 -100 711 400 Q 1066.5 900 1422 364" opacity="0.66"></path><path d="M 0 338 Q 355.5 -100 711 400 Q 1066.5 900 1422 338" opacity="0.74"></path><path d="M 0 312 Q 355.5 -100 711 400 Q 1066.5 900 1422 312" opacity="0.82"></path><path d="M 0 286 Q 355.5 -100 711 400 Q 1066.5 900 1422 286" opacity="0.35"></path><path d="M 0 260 Q 355.5 -100 711 400 Q 1066.5 900 1422 260" opacity="0.70"></path><path d="M 0 234 Q 355.5 -100 711 400 Q 1066.5 900 1422 234" opacity="0.15"></path><path d="M 0 208 Q 355.5 -100 711 400 Q 1066.5 900 1422 208" opacity="0.32"></path><path d="M 0 182 Q 355.5 -100 711 400 Q 1066.5 900 1422 182" opacity="0.53"></path><path d="M 0 156 Q 355.5 -100 711 400 Q 1066.5 900 1422 156" opacity="0.10"></path><path d="M 0 130 Q 355.5 -100 711 400 Q 1066.5 900 1422 130" opacity="0.83"></path><path d="M 0 104 Q 355.5 -100 711 400 Q 1066.5 900 1422 104" opacity="0.17"></path><path d="M 0 78 Q 355.5 -100 711 400 Q 1066.5 900 1422 78" opacity="0.44"></path><path d="M 0 52 Q 355.5 -100 711 400 Q 1066.5 900 1422 52" opacity="0.24"></path></g></svg>