<svg width="275.04" height="59.88" viewBox="0 0 275.04 59.88" xmlns="http://www.w3.org/2000/svg"><g id="svgGroup" stroke-linecap="round" fill-rule="evenodd" font-size="9pt" stroke="#000" stroke-width="0.25mm" fill="#000" style="stroke:#000;stroke-width:0.25mm;fill:#000"><path d="M 199.68 9.12 L 199.68 37.56 Q 199.68 39.423 199.821 40.524 A 8.322 8.322 0 0 0 199.89 40.98 Q 200.1 42.12 200.4 42.48 Q 200.7 42.84 200.94 42.84 L 204.42 42.84 A 0.356 0.356 0 0 1 204.739 43.042 Q 204.9 43.32 204.9 43.98 A 1.534 1.534 0 0 1 204.881 44.217 Q 204.863 44.333 204.828 44.461 A 2.734 2.734 0 0 1 204.81 44.52 Q 204.729 44.793 204.473 44.818 A 0.547 0.547 0 0 1 204.42 44.82 Q 202.56 44.82 200.61 44.79 Q 198.66 44.76 196.86 44.76 Q 194.931 44.76 193.6 44.778 A 112.267 112.267 0 0 0 192.84 44.79 Q 191.499 44.817 190.589 44.868 A 31.727 31.727 0 0 0 190.38 44.88 Q 189.42 44.94 188.46 44.94 Q 188.236 44.94 188.117 44.678 A 0.872 0.872 0 0 1 188.1 44.64 Q 187.98 44.34 187.98 43.98 Q 187.98 43.56 188.1 43.23 Q 188.22 42.9 188.46 42.9 L 191.04 42.9 Q 192.6 42.9 193.05 42.3 A 1.666 1.666 0 0 0 193.278 41.859 Q 193.44 41.407 193.484 40.704 A 9.013 9.013 0 0 0 193.5 40.14 L 193.5 25.98 L 172.08 25.98 L 172.08 37.56 Q 172.08 39.423 172.221 40.524 A 8.322 8.322 0 0 0 172.29 40.98 Q 172.5 42.12 172.8 42.48 Q 173.1 42.84 173.34 42.84 L 176.82 42.84 A 0.356 0.356 0 0 1 177.139 43.042 Q 177.3 43.32 177.3 43.98 A 1.534 1.534 0 0 1 177.281 44.217 Q 177.263 44.333 177.228 44.461 A 2.734 2.734 0 0 1 177.21 44.52 Q 177.129 44.793 176.873 44.818 A 0.547 0.547 0 0 1 176.82 44.82 Q 174.96 44.82 173.01 44.79 Q 171.06 44.76 169.26 44.76 Q 167.331 44.76 166 44.778 A 112.267 112.267 0 0 0 165.24 44.79 Q 163.899 44.817 162.989 44.868 A 31.727 31.727 0 0 0 162.78 44.88 Q 161.82 44.94 160.86 44.94 Q 160.636 44.94 160.517 44.678 A 0.872 0.872 0 0 1 160.5 44.64 Q 160.38 44.34 160.38 43.98 Q 160.38 43.56 160.5 43.23 Q 160.62 42.9 160.86 42.9 L 163.44 42.9 Q 165 42.9 165.45 42.3 A 1.666 1.666 0 0 0 165.678 41.859 Q 165.84 41.407 165.884 40.704 A 9.013 9.013 0 0 0 165.9 40.14 L 165.9 11.7 Q 165.9 9.36 165.69 8.25 A 10.166 10.166 0 0 0 165.589 7.771 Q 165.423 7.08 165.225 6.799 A 0.854 0.854 0 0 0 165.21 6.78 A 1.327 1.327 0 0 0 165.065 6.614 Q 164.861 6.42 164.64 6.42 L 161.16 6.42 A 0.356 0.356 0 0 1 160.841 6.218 Q 160.68 5.94 160.68 5.28 A 1.793 1.793 0 0 1 160.768 4.719 A 1.709 1.709 0 0 1 160.77 4.71 Q 160.86 4.44 161.16 4.44 Q 163.08 4.44 165 4.47 A 241.207 241.207 0 0 0 168.269 4.5 A 218.687 218.687 0 0 0 168.72 4.5 Q 170.696 4.5 172.02 4.482 A 105.723 105.723 0 0 0 172.77 4.47 Q 174.167 4.442 175.104 4.386 A 31.165 31.165 0 0 0 175.2 4.38 Q 176.16 4.32 177.12 4.32 Q 177.368 4.32 177.473 4.524 A 0.568 0.568 0 0 1 177.51 4.62 A 2.127 2.127 0 0 1 177.589 5.034 A 2.643 2.643 0 0 1 177.6 5.28 Q 177.6 5.7 177.48 6.03 Q 177.36 6.36 177.12 6.36 L 174.54 6.36 Q 173.384 6.36 172.834 6.717 A 1.14 1.14 0 0 0 172.56 6.96 A 1.658 1.658 0 0 0 172.308 7.427 Q 172.135 7.899 172.093 8.635 A 8.687 8.687 0 0 0 172.08 9.12 L 172.08 23.52 L 193.5 23.52 L 193.5 11.7 Q 193.5 9.36 193.29 8.25 A 10.166 10.166 0 0 0 193.189 7.771 Q 193.023 7.08 192.825 6.799 A 0.854 0.854 0 0 0 192.81 6.78 A 1.327 1.327 0 0 0 192.665 6.614 Q 192.461 6.42 192.24 6.42 L 188.76 6.42 A 0.356 0.356 0 0 1 188.441 6.218 Q 188.28 5.94 188.28 5.28 A 1.793 1.793 0 0 1 188.368 4.719 A 1.709 1.709 0 0 1 188.37 4.71 Q 188.46 4.44 188.76 4.44 Q 190.68 4.44 192.6 4.47 A 241.207 241.207 0 0 0 195.869 4.5 A 218.687 218.687 0 0 0 196.32 4.5 Q 198.296 4.5 199.62 4.482 A 105.723 105.723 0 0 0 200.37 4.47 Q 201.767 4.442 202.704 4.386 A 31.165 31.165 0 0 0 202.8 4.38 Q 203.76 4.32 204.72 4.32 Q 204.968 4.32 205.073 4.524 A 0.568 0.568 0 0 1 205.11 4.62 A 2.127 2.127 0 0 1 205.189 5.034 A 2.643 2.643 0 0 1 205.2 5.28 Q 205.2 5.7 205.08 6.03 Q 204.96 6.36 204.72 6.36 L 202.14 6.36 Q 200.984 6.36 200.434 6.717 A 1.14 1.14 0 0 0 200.16 6.96 A 1.658 1.658 0 0 0 199.908 7.427 Q 199.735 7.899 199.693 8.635 A 8.687 8.687 0 0 0 199.68 9.12 Z M 137.4 23.52 L 137.4 32.52 L 145.56 24.6 Q 146.84 23.368 147.408 22.491 A 4.131 4.131 0 0 0 147.66 22.05 Q 148.122 21.098 148.14 20.673 A 0.794 0.794 0 0 0 148.14 20.64 A 0.885 0.885 0 0 0 148.119 20.436 Q 148.054 20.161 147.788 20.111 A 0.692 0.692 0 0 0 147.66 20.1 L 144.78 20.1 A 0.311 0.311 0 0 1 144.534 19.979 Q 144.468 19.9 144.42 19.77 A 2.491 2.491 0 0 1 144.352 19.554 Q 144.3 19.358 144.3 19.2 A 1.254 1.254 0 0 1 144.3 19.196 A 1.129 1.129 0 0 1 144.39 18.75 A 0.724 0.724 0 0 1 144.431 18.668 Q 144.507 18.54 144.6 18.54 Q 146.16 18.54 147.66 18.6 Q 149.16 18.66 150.66 18.66 A 55.051 55.051 0 0 0 151.319 18.656 Q 152.126 18.647 152.721 18.612 A 17.532 17.532 0 0 0 152.91 18.6 Q 153.78 18.54 155.1 18.54 Q 155.352 18.54 155.435 18.751 A 0.526 0.526 0 0 1 155.46 18.84 Q 155.52 19.14 155.52 19.44 Q 155.52 20.04 155.22 20.04 L 154.26 20.04 Q 153.572 20.04 152.843 20.564 A 4.545 4.545 0 0 0 152.52 20.82 L 143.16 29.58 Q 146.968 34.525 149.655 37.453 A 48.653 48.653 0 0 0 150.75 38.61 Q 153.279 41.189 154.394 42.095 A 6.599 6.599 0 0 0 154.74 42.36 A 10.821 10.821 0 0 0 155.052 42.551 Q 155.49 42.81 155.76 42.9 Q 156.055 42.998 156.63 43.016 A 8.715 8.715 0 0 0 156.9 43.02 A 0.464 0.464 0 0 1 157.156 43.09 Q 157.24 43.144 157.304 43.239 A 0.738 0.738 0 0 1 157.35 43.32 A 1.445 1.445 0 0 1 157.472 43.658 A 1.225 1.225 0 0 1 157.5 43.92 A 1.808 1.808 0 0 1 157.474 44.243 Q 157.373 44.799 156.878 44.819 A 0.927 0.927 0 0 1 156.84 44.82 A 11.252 11.252 0 0 0 156.281 44.779 Q 155.995 44.765 155.676 44.761 A 19.31 19.31 0 0 0 155.46 44.76 L 153.9 44.76 Q 152.34 44.76 151.68 44.79 L 151.02 44.82 Q 150.705 44.82 150.227 44.543 A 4.268 4.268 0 0 1 150.09 44.46 Q 149.54 44.112 148.458 42.981 A 32.145 32.145 0 0 1 148.38 42.9 Q 147.508 41.981 146.107 40.342 A 166.543 166.543 0 0 1 145.2 39.27 Q 143.639 37.41 141.303 34.547 A 932.551 932.551 0 0 1 139.8 32.7 L 137.4 34.98 L 137.4 37.74 A 47.55 47.55 0 0 0 137.412 38.809 Q 137.437 39.925 137.518 40.685 A 9.713 9.713 0 0 0 137.58 41.16 A 8.737 8.737 0 0 0 137.671 41.652 Q 137.827 42.368 138.05 42.647 A 0.764 0.764 0 0 0 138.06 42.66 A 1.503 1.503 0 0 0 138.22 42.826 Q 138.44 43.02 138.66 43.02 L 141.6 43.02 A 0.294 0.294 0 0 1 141.828 43.129 Q 141.871 43.178 141.907 43.248 A 0.986 0.986 0 0 1 141.96 43.38 A 2.578 2.578 0 0 1 142.042 43.684 Q 142.076 43.848 142.08 43.998 A 1.533 1.533 0 0 1 142.08 44.04 Q 142.08 44.28 141.99 44.55 A 0.726 0.726 0 0 1 141.947 44.655 Q 141.919 44.708 141.886 44.744 A 0.218 0.218 0 0 1 141.72 44.82 Q 140.1 44.82 139.11 44.79 Q 138.12 44.76 137.28 44.76 L 135.18 44.76 Q 132.6 44.76 131.28 44.85 Q 129.96 44.94 128.22 44.94 Q 128.064 44.94 127.952 44.69 A 1.239 1.239 0 0 1 127.92 44.61 A 2.491 2.491 0 0 1 127.852 44.394 Q 127.8 44.198 127.8 44.04 Q 127.8 43.74 127.89 43.44 Q 127.967 43.184 128.066 43.146 A 0.096 0.096 0 0 1 128.1 43.14 L 131.58 43.14 A 0.707 0.707 0 0 0 131.928 43.059 Q 132.219 42.898 132.283 42.415 A 2.273 2.273 0 0 0 132.3 42.12 L 132.3 9.78 Q 132.3 7.736 132.169 6.539 A 9.744 9.744 0 0 0 132.09 5.97 Q 131.882 4.751 131.527 4.357 A 0.835 0.835 0 0 0 131.52 4.35 A 1.685 1.685 0 0 0 131.312 4.157 Q 131.192 4.065 131.072 4.016 A 0.713 0.713 0 0 0 130.8 3.96 L 128.1 3.96 A 0.221 0.221 0 0 1 127.965 3.91 Q 127.862 3.831 127.77 3.63 A 1.792 1.792 0 0 1 127.663 3.327 A 1.335 1.335 0 0 1 127.62 3 A 1.533 1.533 0 0 1 127.626 2.88 Q 127.638 2.722 127.68 2.49 A 0.713 0.713 0 0 1 127.715 2.361 Q 127.793 2.16 127.98 2.16 Q 130.29 2.16 132.005 1.733 A 9.551 9.551 0 0 0 133.29 1.32 Q 134.875 0.677 135.95 0.245 A 382.623 382.623 0 0 1 136.56 0 Q 137.379 0 137.453 0.596 A 1.008 1.008 0 0 1 137.46 0.72 L 137.46 3.93 A 462.797 462.797 0 0 1 137.456 5.838 Q 137.449 7.538 137.43 9.6 Q 137.4 12.9 137.4 16.53 L 137.4 23.52 Z M 61.92 50.16 A 1.528 1.528 0 0 0 61.764 50.05 Q 61.265 49.744 60.9 50.16 A 23.835 23.835 0 0 1 60.083 50.966 Q 59.41 51.597 58.766 52.091 A 11.732 11.732 0 0 1 57.39 53.01 Q 55.74 53.94 53.46 53.94 A 18.036 18.036 0 0 1 52.551 53.917 A 15.585 15.585 0 0 1 47.97 53.01 Q 45.42 52.08 43.05 50.7 L 38.31 47.94 Q 35.94 46.56 33.45 45.63 Q 30.96 44.7 28.2 44.7 Q 32.7 43.38 36.18 40.47 Q 39.66 37.56 41.67 33.48 Q 43.68 29.4 43.68 24.66 Q 43.68 20.34 41.97 16.56 Q 40.26 12.78 37.26 9.9 Q 34.26 7.02 30.3 5.4 Q 26.34 3.78 21.84 3.78 Q 17.34 3.78 13.38 5.4 Q 9.42 7.02 6.42 9.9 Q 3.42 12.78 1.71 16.56 Q 0 20.34 0 24.66 A 22.36 22.36 0 0 0 0.001 24.797 A 19.532 19.532 0 0 0 1.71 32.82 Q 3.42 36.6 6.42 39.48 Q 9.42 42.36 13.38 43.98 Q 17.34 45.6 21.84 45.6 Q 25.2 45.9 28.14 47.43 Q 31.08 48.96 33.81 51.03 Q 36.54 53.1 39.24 55.14 Q 41.94 57.18 44.88 58.53 Q 47.82 59.88 51.18 59.88 A 9.436 9.436 0 0 0 51.763 59.862 A 7.892 7.892 0 0 0 54.99 58.98 Q 56.7 58.08 58.05 56.67 Q 59.4 55.26 60.42 53.76 Q 60.994 52.916 61.492 52.186 A 892.402 892.402 0 0 1 62.22 51.12 Q 62.52 50.64 61.92 50.16 Z M 57.24 24.9 L 57.24 31.44 A 42.214 42.214 0 0 0 57.302 33.794 Q 57.437 36.21 57.87 37.86 A 8.309 8.309 0 0 0 58.378 39.287 Q 58.743 40.063 59.246 40.62 A 4.195 4.195 0 0 0 60 41.28 A 5.227 5.227 0 0 0 61.464 41.955 Q 62.119 42.149 62.903 42.234 A 12.048 12.048 0 0 0 64.2 42.3 Q 66 42.3 67.56 41.31 Q 69.12 40.32 70.02 38.64 L 70.02 25.68 Q 70.02 23.832 69.908 22.751 A 9.246 9.246 0 0 0 69.84 22.23 Q 69.66 21.12 69.36 20.76 A 1.503 1.503 0 0 0 69.201 20.594 Q 68.981 20.4 68.76 20.4 L 65.82 20.4 Q 65.617 20.349 65.5 20.105 A 1.047 1.047 0 0 1 65.46 20.01 Q 65.34 19.68 65.34 19.38 A 1.719 1.719 0 0 1 65.366 19.079 A 1.354 1.354 0 0 1 65.43 18.84 A 0.597 0.597 0 0 1 65.478 18.741 Q 65.509 18.689 65.548 18.656 A 0.229 0.229 0 0 1 65.7 18.6 Q 67.126 18.6 68.091 18.627 A 44.869 44.869 0 0 1 68.19 18.63 Q 69.115 18.658 69.856 18.66 A 41.623 41.623 0 0 0 69.96 18.66 A 52.709 52.709 0 0 0 70.609 18.656 Q 71.236 18.649 71.687 18.625 A 12.298 12.298 0 0 0 72.06 18.6 A 41.2 41.2 0 0 1 72.925 18.537 A 33.564 33.564 0 0 1 73.41 18.51 Q 74.009 18.482 74.906 18.48 A 59.887 59.887 0 0 1 75 18.48 A 1.101 1.101 0 0 1 75.219 18.5 Q 75.557 18.569 75.596 18.877 A 0.672 0.672 0 0 1 75.6 18.96 A 1.762 1.762 0 0 1 75.57 19.275 Q 75.54 19.44 75.48 19.62 Q 75.382 19.914 75.284 20.729 A 26.539 26.539 0 0 0 75.24 21.12 Q 75.13 22.17 75.121 24.492 A 108.496 108.496 0 0 0 75.12 24.9 L 75.12 36.06 Q 75.12 37.741 75.222 38.811 A 12.056 12.056 0 0 0 75.27 39.24 A 4.468 4.468 0 0 0 75.386 39.829 Q 75.572 40.515 75.96 40.86 Q 76.44 41.22 77.22 41.22 Q 77.76 41.22 78.3 41.13 A 7.373 7.373 0 0 1 78.75 41.069 Q 79.024 41.04 79.26 41.04 A 0.239 0.239 0 0 1 79.404 41.092 Q 79.485 41.152 79.559 41.281 A 1.241 1.241 0 0 1 79.59 41.34 A 1.445 1.445 0 0 1 79.712 41.678 A 1.225 1.225 0 0 1 79.74 41.94 Q 79.74 42.459 79.581 42.686 A 0.395 0.395 0 0 1 79.38 42.84 A 28 28 0 0 0 77.727 43.157 Q 76.95 43.332 76.297 43.537 A 11.623 11.623 0 0 0 75.24 43.92 Q 73.68 44.58 72.87 45.09 A 6.457 6.457 0 0 1 72.501 45.307 Q 71.959 45.6 71.64 45.6 A 0.872 0.872 0 0 1 70.939 45.244 Q 70.701 44.95 70.55 44.413 A 4.334 4.334 0 0 1 70.53 44.34 Q 70.2 43.08 70.2 41.22 L 70.08 41.22 A 10.166 10.166 0 0 1 67.201 43.9 A 9.697 9.697 0 0 1 65.94 44.55 Q 63.973 45.39 62.312 45.558 A 8.06 8.06 0 0 1 61.5 45.6 Q 57.3 45.6 54.72 42.99 A 7.422 7.422 0 0 1 53.148 40.514 Q 52.241 38.266 52.15 34.85 A 29.121 29.121 0 0 1 52.14 34.08 L 52.14 25.68 A 49.567 49.567 0 0 0 52.129 24.587 Q 52.105 23.49 52.028 22.751 A 9.246 9.246 0 0 0 51.96 22.23 Q 51.78 21.12 51.48 20.76 A 1.503 1.503 0 0 0 51.321 20.594 Q 51.101 20.4 50.88 20.4 L 47.94 20.4 Q 47.737 20.349 47.62 20.105 A 1.047 1.047 0 0 1 47.58 20.01 Q 47.46 19.68 47.46 19.38 A 1.719 1.719 0 0 1 47.486 19.079 A 1.354 1.354 0 0 1 47.55 18.84 A 0.597 0.597 0 0 1 47.598 18.741 Q 47.629 18.689 47.668 18.656 A 0.229 0.229 0 0 1 47.82 18.6 Q 49.246 18.6 50.211 18.627 A 44.869 44.869 0 0 1 50.31 18.63 Q 51.235 18.658 51.976 18.66 A 41.623 41.623 0 0 0 52.08 18.66 A 52.709 52.709 0 0 0 52.729 18.656 Q 53.356 18.649 53.807 18.625 A 12.298 12.298 0 0 0 54.18 18.6 A 41.2 41.2 0 0 1 55.045 18.537 A 33.564 33.564 0 0 1 55.53 18.51 Q 56.129 18.482 57.026 18.48 A 59.887 59.887 0 0 1 57.12 18.48 A 1.101 1.101 0 0 1 57.339 18.5 Q 57.677 18.569 57.716 18.877 A 0.672 0.672 0 0 1 57.72 18.96 Q 57.72 19.26 57.6 19.62 Q 57.502 19.914 57.404 20.729 A 26.539 26.539 0 0 0 57.36 21.12 Q 57.25 22.17 57.241 24.492 A 108.496 108.496 0 0 0 57.24 24.9 Z M 270.242 29.951 A 60.428 60.428 0 0 0 272.58 29.82 Q 273.78 29.7 274.2 29.34 Q 274.515 29.07 274.594 28.463 A 3.454 3.454 0 0 0 274.62 28.02 A 13.138 13.138 0 0 0 274.412 25.629 A 9.637 9.637 0 0 0 273.36 22.65 Q 272.1 20.4 270.03 19.14 Q 267.96 17.88 265.38 17.88 A 11.705 11.705 0 0 0 264.03 17.958 A 12.934 12.934 0 0 0 260.58 18.87 A 13.743 13.743 0 0 0 259.913 19.166 A 14.639 14.639 0 0 0 256.17 21.75 A 13.385 13.385 0 0 0 255.046 22.946 A 14.886 14.886 0 0 0 252.93 26.37 A 13.379 13.379 0 0 0 252.068 28.986 A 16.342 16.342 0 0 0 251.7 32.52 Q 251.7 35.82 253.32 38.82 Q 254.94 41.82 257.76 43.71 A 11.009 11.009 0 0 0 259.815 44.796 A 11.674 11.674 0 0 0 264.18 45.6 A 17.772 17.772 0 0 0 264.976 45.583 Q 267.519 45.469 269.34 44.61 A 14.695 14.695 0 0 0 269.48 44.543 Q 271.482 43.574 272.67 42.24 Q 273.401 41.421 273.898 40.665 A 8.359 8.359 0 0 0 274.47 39.66 A 18.308 18.308 0 0 0 274.664 39.239 Q 275.04 38.393 275.04 38.1 A 1.587 1.587 0 0 0 275.04 38.095 Q 275.038 37.38 274.38 37.38 A 0.736 0.736 0 0 0 274.369 37.38 Q 273.954 37.386 273.48 37.86 Q 273.165 38.175 272.682 38.542 A 14.966 14.966 0 0 1 272.13 38.94 Q 271.56 39.334 270.704 39.676 A 13.545 13.545 0 0 1 269.73 40.02 A 8.857 8.857 0 0 1 268.569 40.293 Q 267.355 40.5 265.74 40.5 A 11.839 11.839 0 0 1 264.4 40.423 A 14.176 14.176 0 0 1 262.11 39.96 Q 260.22 39.42 258.6 38.22 A 8.497 8.497 0 0 1 257.514 37.261 A 9.559 9.559 0 0 1 255.96 35.07 A 7.594 7.594 0 0 1 255.746 34.625 Q 254.94 32.806 254.94 30.3 A 195.916 195.916 0 0 1 255.592 30.26 Q 260.95 29.943 265.08 30 A 134.204 134.204 0 0 0 265.299 30.003 Q 268.016 30.036 270.242 29.951 Z M 118.347 17.958 A 12.116 12.116 0 0 0 116.46 17.82 Q 113.4 17.82 110.58 19.02 Q 107.76 20.22 105.54 22.35 Q 103.32 24.48 102 27.33 Q 100.68 30.18 100.68 33.54 Q 100.68 36.54 102.15 39.3 A 11.364 11.364 0 0 0 103.324 41.081 A 12.343 12.343 0 0 0 106.47 43.83 Q 109.32 45.6 113.46 45.6 A 13.221 13.221 0 0 0 114.606 45.551 A 10.98 10.98 0 0 0 117.75 44.82 A 17.067 17.067 0 0 0 119.196 44.165 A 13.472 13.472 0 0 0 121.14 42.96 Q 122.04 42.285 122.683 41.645 A 8.491 8.491 0 0 0 123.36 40.89 A 10.936 10.936 0 0 0 123.506 40.701 Q 123.967 40.089 124.093 39.721 A 0.76 0.76 0 0 0 124.14 39.48 Q 124.14 38.7 123.42 38.7 A 0.583 0.583 0 0 0 123.303 38.714 Q 123.007 38.775 122.459 39.116 A 10.082 10.082 0 0 0 122.13 39.33 Q 121.52 39.744 120.613 40.17 A 21.586 21.586 0 0 1 119.58 40.62 Q 117.96 41.28 115.32 41.28 A 9.126 9.126 0 0 1 113.618 41.12 A 10.318 10.318 0 0 1 110.82 40.14 A 8.442 8.442 0 0 1 108.882 38.767 A 10.066 10.066 0 0 1 107.16 36.6 A 8.515 8.515 0 0 1 106.574 35.419 Q 105.72 33.316 105.72 30.36 A 17.297 17.297 0 0 1 105.783 28.862 Q 105.911 27.392 106.301 26.179 A 7.898 7.898 0 0 1 107.97 23.22 A 9.225 9.225 0 0 1 108.801 22.415 A 6.561 6.561 0 0 1 113.16 20.76 Q 115.2 20.76 116.97 21.66 Q 118.077 22.223 119.265 23.184 A 21.712 21.712 0 0 1 120.72 24.48 A 6.464 6.464 0 0 0 121.325 24.185 Q 122.113 23.745 122.49 23.19 A 3.321 3.321 0 0 0 122.748 22.742 A 2.51 2.51 0 0 0 123 21.66 Q 123 20.559 122.03 19.635 A 5.729 5.729 0 0 0 121.2 18.99 Q 120.019 18.222 118.347 17.958 Z M 237.42 22.26 L 237.54 22.26 Q 238.024 21.736 238.779 21.104 A 26.018 26.018 0 0 1 239.58 20.46 A 16.005 16.005 0 0 1 241.566 19.157 A 19.006 19.006 0 0 1 242.58 18.63 A 8.234 8.234 0 0 1 244.575 17.954 A 7.086 7.086 0 0 1 245.94 17.82 A 5.149 5.149 0 0 1 246.795 17.886 Q 247.723 18.043 248.25 18.57 A 2.567 2.567 0 0 1 248.824 19.415 A 2.421 2.421 0 0 1 249 20.34 Q 249 21.242 248.391 22.198 A 5.462 5.462 0 0 1 248.31 22.32 A 4.308 4.308 0 0 1 247.133 23.478 A 5.714 5.714 0 0 1 246.3 23.94 A 9.969 9.969 0 0 0 244.855 22.873 A 8.67 8.67 0 0 0 244.17 22.5 A 5.524 5.524 0 0 0 243 22.079 A 4.509 4.509 0 0 0 241.98 21.96 Q 240.6 21.96 239.46 22.65 Q 238.32 23.34 237.6 24.3 L 237.6 37.74 A 47.549 47.549 0 0 0 237.612 38.809 Q 237.637 39.925 237.718 40.685 A 9.713 9.713 0 0 0 237.78 41.16 A 8.737 8.737 0 0 0 237.871 41.652 Q 238.027 42.368 238.25 42.647 A 0.764 0.764 0 0 0 238.26 42.66 A 1.503 1.503 0 0 0 238.42 42.826 Q 238.64 43.02 238.86 43.02 L 241.8 43.02 A 0.294 0.294 0 0 1 242.028 43.129 Q 242.071 43.178 242.107 43.248 A 0.986 0.986 0 0 1 242.16 43.38 A 2.578 2.578 0 0 1 242.242 43.684 Q 242.276 43.848 242.28 43.998 A 1.533 1.533 0 0 1 242.28 44.04 Q 242.28 44.28 242.19 44.55 A 0.726 0.726 0 0 1 242.147 44.655 Q 242.119 44.708 242.086 44.744 A 0.218 0.218 0 0 1 241.92 44.82 Q 240.3 44.82 239.31 44.79 Q 238.32 44.76 237.48 44.76 L 235.38 44.76 Q 232.8 44.76 231.48 44.85 Q 230.16 44.94 228.42 44.94 Q 228.264 44.94 228.152 44.69 A 1.239 1.239 0 0 1 228.12 44.61 A 2.491 2.491 0 0 1 228.052 44.394 Q 228 44.198 228 44.04 Q 228 43.74 228.09 43.44 Q 228.167 43.184 228.266 43.146 A 0.096 0.096 0 0 1 228.3 43.14 L 231.78 43.14 A 0.707 0.707 0 0 0 232.128 43.059 Q 232.419 42.898 232.483 42.415 A 2.273 2.273 0 0 0 232.5 42.12 L 232.5 28.02 Q 232.5 25.976 232.35 24.779 A 8.599 8.599 0 0 0 232.26 24.21 A 8.021 8.021 0 0 0 232.135 23.664 Q 231.996 23.147 231.819 22.843 A 1.236 1.236 0 0 0 231.63 22.59 Q 231.332 22.291 231.015 22.221 A 0.901 0.901 0 0 0 230.82 22.2 L 229.62 22.2 A 0.221 0.221 0 0 1 229.485 22.15 Q 229.382 22.071 229.29 21.87 A 1.792 1.792 0 0 1 229.183 21.567 A 1.335 1.335 0 0 1 229.14 21.24 A 1.533 1.533 0 0 1 229.146 21.12 Q 229.158 20.962 229.2 20.73 A 0.713 0.713 0 0 1 229.235 20.601 Q 229.313 20.4 229.5 20.4 Q 230.88 20.4 232.08 19.77 A 9.786 9.786 0 0 0 234.004 18.458 A 9.06 9.06 0 0 0 234.21 18.27 Q 234.85 17.672 235.362 17.187 A 155.323 155.323 0 0 0 235.8 16.77 A 7.92 7.92 0 0 1 236.033 16.556 Q 236.386 16.245 236.584 16.167 A 0.324 0.324 0 0 1 236.7 16.14 Q 237.54 16.14 237.54 16.86 Q 237.54 18.456 237.486 19.538 A 28.307 28.307 0 0 1 237.48 19.65 A 36.863 36.863 0 0 0 237.444 20.537 Q 237.432 20.93 237.426 21.361 A 66.199 66.199 0 0 0 237.42 22.26 Z M 21.84 6.54 A 12.6 12.6 0 0 0 17.152 7.397 A 11.808 11.808 0 0 0 14.37 8.97 A 15.494 15.494 0 0 0 10.215 13.792 A 19.14 19.14 0 0 0 9.36 15.51 A 21.513 21.513 0 0 0 7.687 22.048 A 26.305 26.305 0 0 0 7.56 24.66 A 24.493 24.493 0 0 0 8.195 30.328 A 20.869 20.869 0 0 0 9.36 33.84 A 17.645 17.645 0 0 0 11.671 37.756 A 14.83 14.83 0 0 0 14.37 40.41 A 11.981 11.981 0 0 0 21.575 42.838 A 14.765 14.765 0 0 0 21.84 42.84 A 12.6 12.6 0 0 0 26.529 41.983 A 11.808 11.808 0 0 0 29.31 40.41 A 15.39 15.39 0 0 0 33.399 35.687 A 19.154 19.154 0 0 0 34.32 33.84 A 21.824 21.824 0 0 0 36.008 27.124 A 26.47 26.47 0 0 0 36.12 24.66 A 24.399 24.399 0 0 0 35.502 19.073 A 20.578 20.578 0 0 0 34.32 15.51 A 17.489 17.489 0 0 0 31.87 11.443 A 14.905 14.905 0 0 0 29.31 8.97 A 11.981 11.981 0 0 0 22.106 6.542 A 14.765 14.765 0 0 0 21.84 6.54 Z M 91.92 27 L 91.92 37.74 A 47.55 47.55 0 0 0 91.932 38.809 Q 91.957 39.925 92.038 40.685 A 9.713 9.713 0 0 0 92.1 41.16 A 8.737 8.737 0 0 0 92.191 41.652 Q 92.347 42.368 92.57 42.647 A 0.764 0.764 0 0 0 92.58 42.66 A 1.503 1.503 0 0 0 92.74 42.826 Q 92.96 43.02 93.18 43.02 L 96.12 43.02 A 0.294 0.294 0 0 1 96.348 43.129 Q 96.391 43.178 96.427 43.248 A 0.986 0.986 0 0 1 96.48 43.38 A 2.578 2.578 0 0 1 96.562 43.684 Q 96.596 43.848 96.6 43.998 A 1.533 1.533 0 0 1 96.6 44.04 Q 96.6 44.28 96.51 44.55 A 0.726 0.726 0 0 1 96.467 44.655 Q 96.439 44.708 96.406 44.744 A 0.218 0.218 0 0 1 96.24 44.82 Q 94.62 44.82 93.63 44.79 Q 92.64 44.76 91.8 44.76 L 89.7 44.76 Q 87.12 44.76 85.8 44.85 Q 84.48 44.94 82.74 44.94 Q 82.584 44.94 82.472 44.69 A 1.239 1.239 0 0 1 82.44 44.61 A 2.491 2.491 0 0 1 82.372 44.394 Q 82.32 44.198 82.32 44.04 Q 82.32 43.74 82.41 43.44 Q 82.487 43.184 82.586 43.146 A 0.096 0.096 0 0 1 82.62 43.14 L 86.1 43.14 A 0.707 0.707 0 0 0 86.448 43.059 Q 86.739 42.898 86.803 42.415 A 2.273 2.273 0 0 0 86.82 42.12 L 86.82 28.02 Q 86.82 25.976 86.67 24.779 A 8.599 8.599 0 0 0 86.58 24.21 A 8.021 8.021 0 0 0 86.455 23.664 Q 86.316 23.147 86.139 22.843 A 1.236 1.236 0 0 0 85.95 22.59 Q 85.652 22.291 85.335 22.221 A 0.901 0.901 0 0 0 85.14 22.2 L 83.94 22.2 A 0.221 0.221 0 0 1 83.805 22.15 Q 83.702 22.071 83.61 21.87 A 1.792 1.792 0 0 1 83.503 21.567 A 1.335 1.335 0 0 1 83.46 21.24 A 1.533 1.533 0 0 1 83.466 21.12 Q 83.478 20.962 83.52 20.73 A 0.713 0.713 0 0 1 83.555 20.601 Q 83.633 20.4 83.82 20.4 Q 85.26 20.4 86.46 19.77 Q 87.66 19.14 88.62 18.27 A 119.645 119.645 0 0 0 89.298 17.651 Q 89.563 17.408 89.799 17.187 A 60.01 60.01 0 0 0 90.24 16.77 A 5.248 5.248 0 0 1 90.515 16.525 Q 90.943 16.17 91.216 16.142 A 0.446 0.446 0 0 1 91.26 16.14 Q 92.079 16.14 92.153 16.736 A 1.008 1.008 0 0 1 92.16 16.86 Q 92.16 17.7 92.13 18.39 A 71.179 71.179 0 0 1 92.104 18.95 Q 92.091 19.201 92.075 19.481 A 144.063 144.063 0 0 1 92.04 20.07 Q 91.987 20.956 91.957 22.345 A 118.363 118.363 0 0 0 91.95 22.68 Q 91.92 24.3 91.92 27 Z M 219.48 27 L 219.48 37.74 A 47.55 47.55 0 0 0 219.492 38.809 Q 219.517 39.925 219.598 40.685 A 9.713 9.713 0 0 0 219.66 41.16 A 8.737 8.737 0 0 0 219.751 41.652 Q 219.907 42.368 220.13 42.647 A 0.764 0.764 0 0 0 220.14 42.66 A 1.503 1.503 0 0 0 220.3 42.826 Q 220.52 43.02 220.74 43.02 L 223.68 43.02 A 0.294 0.294 0 0 1 223.908 43.129 Q 223.951 43.178 223.987 43.248 A 0.986 0.986 0 0 1 224.04 43.38 A 2.578 2.578 0 0 1 224.122 43.684 Q 224.156 43.848 224.16 43.998 A 1.533 1.533 0 0 1 224.16 44.04 Q 224.16 44.28 224.07 44.55 A 0.726 0.726 0 0 1 224.027 44.655 Q 223.999 44.708 223.966 44.744 A 0.218 0.218 0 0 1 223.8 44.82 Q 222.18 44.82 221.19 44.79 Q 220.2 44.76 219.36 44.76 L 217.26 44.76 Q 214.68 44.76 213.36 44.85 Q 212.04 44.94 210.3 44.94 Q 210.144 44.94 210.032 44.69 A 1.239 1.239 0 0 1 210 44.61 A 2.491 2.491 0 0 1 209.932 44.394 Q 209.88 44.198 209.88 44.04 Q 209.88 43.74 209.97 43.44 Q 210.047 43.184 210.146 43.146 A 0.096 0.096 0 0 1 210.18 43.14 L 213.66 43.14 A 0.707 0.707 0 0 0 214.008 43.059 Q 214.299 42.898 214.363 42.415 A 2.273 2.273 0 0 0 214.38 42.12 L 214.38 28.02 Q 214.38 25.976 214.23 24.779 A 8.599 8.599 0 0 0 214.14 24.21 A 8.021 8.021 0 0 0 214.015 23.664 Q 213.876 23.147 213.699 22.843 A 1.236 1.236 0 0 0 213.51 22.59 Q 213.212 22.291 212.895 22.221 A 0.901 0.901 0 0 0 212.7 22.2 L 211.5 22.2 A 0.221 0.221 0 0 1 211.365 22.15 Q 211.262 22.071 211.17 21.87 A 1.792 1.792 0 0 1 211.063 21.567 A 1.335 1.335 0 0 1 211.02 21.24 A 1.533 1.533 0 0 1 211.026 21.12 Q 211.038 20.962 211.08 20.73 A 0.713 0.713 0 0 1 211.115 20.601 Q 211.193 20.4 211.38 20.4 Q 212.82 20.4 214.02 19.77 Q 215.22 19.14 216.18 18.27 A 119.645 119.645 0 0 0 216.858 17.651 Q 217.123 17.408 217.359 17.187 A 60.01 60.01 0 0 0 217.8 16.77 A 5.248 5.248 0 0 1 218.075 16.525 Q 218.503 16.17 218.776 16.142 A 0.446 0.446 0 0 1 218.82 16.14 Q 219.639 16.14 219.713 16.736 A 1.008 1.008 0 0 1 219.72 16.86 Q 219.72 17.7 219.69 18.39 A 71.179 71.179 0 0 1 219.664 18.95 Q 219.651 19.201 219.635 19.481 A 144.063 144.063 0 0 1 219.6 20.07 Q 219.547 20.956 219.517 22.345 A 118.363 118.363 0 0 0 219.51 22.68 Q 219.48 24.3 219.48 27 Z M 263.76 21.12 A 8.571 8.571 0 0 0 260.987 21.595 A 10.356 10.356 0 0 0 260.13 21.93 Q 258.3 22.74 256.95 24.36 A 8.082 8.082 0 0 0 255.603 26.713 A 10.757 10.757 0 0 0 255.12 28.44 A 108.23 108.23 0 0 1 257.863 28.164 A 131.33 131.33 0 0 1 259.62 28.02 Q 262.02 27.84 264.18 27.66 Q 265.961 27.512 267.089 27.363 A 25.223 25.223 0 0 0 267.54 27.3 Q 268.38 27.207 268.838 27.041 A 1.778 1.778 0 0 0 269.07 26.94 Q 269.46 26.732 269.512 26.299 A 1.163 1.163 0 0 0 269.52 26.16 A 4.541 4.541 0 0 0 268.189 22.93 A 6.223 6.223 0 0 0 267.87 22.62 A 5.721 5.721 0 0 0 264.436 21.15 A 7.546 7.546 0 0 0 263.76 21.12 Z M 88.21 11.295 A 3.065 3.065 0 0 0 89.4 11.52 A 3.659 3.659 0 0 0 89.523 11.518 A 2.854 2.854 0 0 0 91.59 10.59 Q 92.46 9.66 92.46 8.34 A 2.681 2.681 0 0 0 92.182 7.126 A 3.022 3.022 0 0 0 91.53 6.27 Q 90.6 5.4 89.4 5.4 Q 88.2 5.4 87.27 6.24 A 2.833 2.833 0 0 0 86.627 7.071 A 2.786 2.786 0 0 0 86.34 8.34 Q 86.34 9.66 87.21 10.59 A 2.877 2.877 0 0 0 88.21 11.295 Z M 215.77 11.295 A 3.065 3.065 0 0 0 216.96 11.52 A 3.659 3.659 0 0 0 217.083 11.518 A 2.854 2.854 0 0 0 219.15 10.59 Q 220.02 9.66 220.02 8.34 A 2.681 2.681 0 0 0 219.742 7.126 A 3.022 3.022 0 0 0 219.09 6.27 Q 218.16 5.4 216.96 5.4 Q 215.76 5.4 214.83 6.24 A 2.833 2.833 0 0 0 214.187 7.071 A 2.786 2.786 0 0 0 213.9 8.34 Q 213.9 9.66 214.77 10.59 A 2.877 2.877 0 0 0 215.77 11.295 Z" vector-effect="non-scaling-stroke"/></g></svg>