<svg width="415" height="60" viewBox="0 0 415 60" xmlns="http://www.w3.org/2000/svg"><g id="svgGroup" stroke-linecap="round" fill-rule="evenodd" font-size="9pt" stroke="#000" stroke-width="0.25mm" fill="#000" style="stroke:#000;stroke-width:0.25mm;fill:#000"><path d="M 201.12 5.1 L 195.42 6.84 L 195.42 31.08 A 17.218 17.218 0 0 0 195.693 34.252 Q 196.024 36.015 196.756 37.389 A 8.246 8.246 0 0 0 198.36 39.51 A 9.535 9.535 0 0 0 202.262 41.707 Q 203.748 42.152 205.535 42.263 A 19.739 19.739 0 0 0 206.76 42.3 A 20.762 20.762 0 0 0 209.011 42.186 Q 211.472 41.917 212.97 41.01 Q 215.1 39.72 215.94 37.65 A 13.36 13.36 0 0 0 216.837 33.975 A 15.539 15.539 0 0 0 216.9 33.15 Q 217.02 30.72 217.02 28.44 L 216.9 6.84 L 211.2 5.7 L 211.8 3 L 226.2 3 L 226.2 5.1 L 221.1 6.84 L 221.1 29.7 Q 221.1 32.34 220.59 35.13 Q 220.08 37.92 218.58 40.29 A 10.076 10.076 0 0 1 215.851 43.123 A 13.149 13.149 0 0 1 214.17 44.13 A 12.17 12.17 0 0 1 211.504 45.082 Q 209.334 45.6 206.52 45.6 Q 198.06 45.6 193.74 42.21 A 10.387 10.387 0 0 1 190.369 37.364 Q 189.746 35.6 189.532 33.419 A 24.573 24.573 0 0 1 189.42 31.02 L 189.42 6.84 L 183.72 5.7 L 184.32 3 L 201.12 3 L 201.12 5.1 Z M 72.84 15.54 L 70.86 7.02 Q 69.3 6 67.44 5.76 Q 65.58 5.52 63.78 5.52 Q 59.94 5.52 56.49 7.53 A 13.767 13.767 0 0 0 52.356 11.286 A 18.04 18.04 0 0 0 50.88 13.65 A 17.401 17.401 0 0 0 49.348 17.904 Q 48.897 19.888 48.77 22.2 A 33.957 33.957 0 0 0 48.72 24.06 Q 48.72 28.8 49.776 32.206 A 15.349 15.349 0 0 0 50.88 34.89 A 15.177 15.177 0 0 0 53.127 38.092 A 11.987 11.987 0 0 0 56.61 40.71 Q 60.18 42.48 64.32 42.48 Q 66.11 42.48 67.475 42.184 A 9.274 9.274 0 0 0 68.19 42 A 21.389 21.389 0 0 0 70.546 41.14 A 18.956 18.956 0 0 0 71.16 40.86 L 73.32 31.5 L 76.38 32.1 L 76.38 42.42 Q 73.8 43.68 70.56 44.76 A 19.756 19.756 0 0 1 67.259 45.535 Q 65.239 45.84 62.88 45.84 Q 58.8 45.84 55.11 44.43 Q 51.42 43.02 48.57 40.23 A 19.425 19.425 0 0 1 44.731 34.864 A 23.063 23.063 0 0 1 44.07 33.39 A 21.733 21.733 0 0 1 42.736 28.445 A 29.134 29.134 0 0 1 42.42 24.06 A 24.757 24.757 0 0 1 42.913 19.017 A 19.798 19.798 0 0 1 44.22 14.94 Q 46.02 10.92 49.17 8.07 Q 52.32 5.22 56.34 3.72 Q 60.36 2.22 64.8 2.22 Q 67.56 2.22 70.35 2.82 A 26.874 26.874 0 0 1 75.555 4.525 A 29.815 29.815 0 0 1 75.9 4.68 L 75.9 14.94 L 72.84 15.54 Z M 258.24 24.3 L 258.24 41.28 L 263.04 42.3 L 262.44 45 L 248.22 45 L 248.22 43.2 L 252.84 41.4 L 252.84 25.5 A 23.014 23.014 0 0 0 252.784 23.843 Q 252.653 22.028 252.21 20.91 A 4.795 4.795 0 0 0 251.672 19.899 A 3.323 3.323 0 0 0 250.29 18.75 Q 249.227 18.28 247.736 18.198 A 11.86 11.86 0 0 0 247.08 18.18 Q 244.68 18.18 242.31 19.02 A 11.538 11.538 0 0 0 240.758 19.693 Q 239.509 20.356 238.74 21.24 L 238.74 41.28 L 243.3 42.12 L 242.7 45 L 228.18 45 L 228.18 43.2 L 233.4 41.4 L 233.4 18.42 L 228.42 17.46 L 228.12 14.82 L 238.74 13.38 L 238.74 18.3 Q 240.78 15.84 243.72 14.55 Q 246.66 13.26 249.12 13.26 A 11.297 11.297 0 0 1 251.856 13.572 A 7.541 7.541 0 0 1 255.78 15.9 A 8.173 8.173 0 0 1 257.267 18.431 Q 258.139 20.711 258.235 24.081 A 28.619 28.619 0 0 1 258.24 24.3 Z M 319.38 43.98 L 308.58 17.52 L 304.44 16.5 L 305.04 13.8 L 317.88 13.8 L 317.88 15.6 L 314.28 17.1 L 321.72 35.52 L 322.08 37.2 L 330.36 17.28 L 326.7 16.68 L 327.3 13.8 L 337.98 13.8 L 337.98 15.6 L 334.08 17.34 Q 331.26 24.36 328.77 29.91 A 309.352 309.352 0 0 0 326.735 34.542 Q 325.823 36.668 325.044 38.585 A 178.03 178.03 0 0 0 324.54 39.84 A 1651.974 1651.974 0 0 1 323.018 43.66 Q 322.294 45.471 321.642 47.086 A 1006.627 1006.627 0 0 1 321.6 47.19 A 57.764 57.764 0 0 1 320.61 49.503 Q 320.094 50.636 319.579 51.617 A 31.322 31.322 0 0 1 318.96 52.74 A 14.291 14.291 0 0 1 315.53 56.855 A 16.254 16.254 0 0 1 315.39 56.97 A 7.95 7.95 0 0 1 311.978 58.564 A 11.365 11.365 0 0 1 309.6 58.8 A 12.656 12.656 0 0 1 306.803 58.476 A 15.036 15.036 0 0 1 305.76 58.2 L 307.44 53.22 Q 308.4 53.46 309.3 53.55 A 18.542 18.542 0 0 0 310.326 53.625 A 14.837 14.837 0 0 0 310.98 53.64 A 9.623 9.623 0 0 0 312.233 53.564 Q 313.506 53.396 314.31 52.86 A 5.71 5.71 0 0 0 315.869 51.295 A 7.035 7.035 0 0 0 316.23 50.7 A 371.463 371.463 0 0 0 316.926 49.412 Q 317.4 48.533 317.94 47.52 Q 318.24 46.74 318.63 45.84 Q 319.02 44.94 319.38 43.98 Z M 0 28.8 L 0 25.08 L 36.54 10.26 L 36.54 14.94 L 6.18 26.94 L 36.54 38.94 L 36.54 43.62 L 0 28.8 Z M 413.16 25.08 L 413.16 28.8 L 376.62 43.62 L 376.62 38.94 L 406.98 26.94 L 376.62 14.94 L 376.62 10.26 L 413.16 25.08 Z M 140.46 45 L 140.46 41.58 Q 138.42 43.44 136.17 44.46 Q 133.92 45.48 131.1 45.48 Q 127.8 45.48 124.8 43.62 A 13.532 13.532 0 0 1 120.549 39.392 A 16.452 16.452 0 0 1 119.94 38.37 A 14.898 14.898 0 0 1 118.31 33.482 A 19.654 19.654 0 0 1 118.08 30.42 Q 118.08 26.52 119.37 23.43 A 17.133 17.133 0 0 1 121.555 19.607 A 15.298 15.298 0 0 1 122.82 18.15 Q 124.98 15.96 127.74 14.79 Q 130.5 13.62 133.38 13.62 Q 135.18 13.62 136.98 14.13 Q 138.78 14.64 140.46 15.66 L 140.46 5.04 L 135.48 4.08 L 135.18 1.44 L 145.8 0 L 145.8 41.22 L 149.88 42.24 L 149.28 45 L 140.46 45 Z M 180.3 28.92 L 159 28.92 Q 159 32.775 160.336 35.578 A 11.57 11.57 0 0 0 160.41 35.73 A 11.468 11.468 0 0 0 162.257 38.452 A 9.857 9.857 0 0 0 164.25 40.11 Q 166.68 41.64 169.68 41.64 A 13.847 13.847 0 0 0 174.429 40.761 Q 176.434 40.032 178.5 38.7 L 179.82 40.98 A 24.041 24.041 0 0 1 176.075 43.385 A 20.367 20.367 0 0 1 173.76 44.4 A 18.783 18.783 0 0 1 169.764 45.399 A 16.248 16.248 0 0 1 167.64 45.54 Q 163.68 45.54 160.35 43.65 A 13.579 13.579 0 0 1 155.601 39.094 A 16.6 16.6 0 0 1 155.01 38.1 Q 153.014 34.465 153 29.35 A 26.394 26.394 0 0 1 153 29.28 A 21.103 21.103 0 0 1 153.277 25.778 A 15.577 15.577 0 0 1 154.26 22.32 A 15.839 15.839 0 0 1 156.052 19.107 A 13.441 13.441 0 0 1 157.62 17.31 Q 159.72 15.3 162.3 14.31 A 14.635 14.635 0 0 1 166.331 13.367 A 13.489 13.489 0 0 1 167.46 13.32 A 19.737 19.737 0 0 1 170.047 13.48 Q 171.412 13.66 172.55 14.046 A 9.579 9.579 0 0 1 174 14.67 A 10.329 10.329 0 0 1 176.81 16.835 A 9.518 9.518 0 0 1 177.9 18.3 Q 179.28 20.58 179.79 23.34 Q 180.3 26.1 180.3 28.92 Z M 303.06 39.42 L 304.2 40.86 Q 302.82 43.02 300.18 44.37 A 12.348 12.348 0 0 1 296.94 45.514 A 10.84 10.84 0 0 1 294.84 45.72 A 10.204 10.204 0 0 1 293.304 45.612 Q 292.474 45.485 291.799 45.21 A 4.714 4.714 0 0 1 290.73 44.61 A 5.75 5.75 0 0 1 288.825 42.051 A 7.205 7.205 0 0 1 288.66 41.58 A 12.929 12.929 0 0 1 288.167 39.2 A 16.955 16.955 0 0 1 288.06 37.26 L 288.06 17.16 L 283.32 17.16 L 283.32 15.06 L 288.36 13.26 L 290.46 6.6 L 293.46 6.6 L 293.46 13.8 L 303.06 13.8 L 303.06 17.1 L 293.46 17.1 L 293.46 35.82 Q 293.46 39.12 294.06 40.32 Q 294.66 41.52 296.94 41.52 Q 298.32 41.52 299.76 41.04 A 11.653 11.653 0 0 0 300.899 40.587 Q 301.507 40.31 302.177 39.937 A 24.593 24.593 0 0 0 303.06 39.42 Z M 366.36 3 L 371.34 3 L 343.74 54.42 L 338.76 54.42 L 366.36 3 Z M 100.078 13.458 A 20.715 20.715 0 0 0 96.72 13.2 A 16.9 16.9 0 0 0 94.445 13.349 A 13.228 13.228 0 0 0 90.33 14.58 Q 87.54 15.96 85.65 18.3 Q 83.76 20.64 82.77 23.55 Q 81.78 26.46 81.78 29.52 Q 81.78 32.52 82.74 35.37 Q 83.7 38.22 85.68 40.5 A 13.284 13.284 0 0 0 87.162 41.958 A 14.888 14.888 0 0 0 90.66 44.13 A 14.825 14.825 0 0 0 94.246 45.203 A 20.263 20.263 0 0 0 97.68 45.48 A 16.9 16.9 0 0 0 99.955 45.331 A 13.228 13.228 0 0 0 104.07 44.1 Q 106.86 42.72 108.75 40.38 Q 110.64 38.04 111.63 35.13 Q 112.62 32.22 112.62 29.16 Q 112.62 26.16 111.66 23.31 Q 110.7 20.46 108.72 18.18 A 13.437 13.437 0 0 0 107.457 16.908 A 14.788 14.788 0 0 0 103.77 14.55 A 12.706 12.706 0 0 0 103.553 14.454 Q 101.969 13.769 100.078 13.458 Z M 276.24 13.38 L 276.24 41.28 L 280.74 42.12 L 280.14 45 L 265.56 45 L 265.56 43.2 L 270.84 41.4 L 270.84 18.18 L 265.98 17.28 L 265.68 14.82 L 276.24 13.38 Z M 97.62 42.18 A 9.494 9.494 0 0 0 99.873 41.927 A 6.683 6.683 0 0 0 102.84 40.38 A 10.028 10.028 0 0 0 105.345 36.782 A 12.344 12.344 0 0 0 105.72 35.76 A 19.412 19.412 0 0 0 106.62 29.844 A 21.831 21.831 0 0 0 106.62 29.82 Q 106.62 26.52 105.72 23.46 A 11.599 11.599 0 0 0 104.331 20.388 A 10.031 10.031 0 0 0 102.69 18.45 A 7.05 7.05 0 0 0 99.772 16.873 Q 98.434 16.5 96.78 16.5 Q 93.6 16.5 91.59 18.3 A 9.976 9.976 0 0 0 88.99 22.058 A 12.206 12.206 0 0 0 88.68 22.92 A 19.412 19.412 0 0 0 87.78 28.836 A 21.831 21.831 0 0 0 87.78 28.86 Q 87.78 32.16 88.68 35.22 A 11.599 11.599 0 0 0 90.069 38.292 A 10.031 10.031 0 0 0 91.71 40.23 A 7.05 7.05 0 0 0 94.628 41.807 Q 95.966 42.18 97.62 42.18 Z M 140.46 37.92 L 140.46 20.1 A 12.142 12.142 0 0 0 138.965 18.772 A 9.108 9.108 0 0 0 137.19 17.73 A 8.966 8.966 0 0 0 135.117 17.094 A 7.706 7.706 0 0 0 133.8 16.98 A 7.992 7.992 0 0 0 129.444 18.283 A 9.86 9.86 0 0 0 129.06 18.54 Q 126.84 20.1 125.46 22.83 A 12.676 12.676 0 0 0 124.258 26.685 A 16.585 16.585 0 0 0 124.08 29.16 Q 124.08 32.52 124.92 35.34 A 11.708 11.708 0 0 0 125.839 37.589 A 8.774 8.774 0 0 0 127.56 39.84 Q 129.36 41.52 132.24 41.52 A 8.615 8.615 0 0 0 134.3 41.257 Q 135.179 41.04 136.112 40.646 A 14.735 14.735 0 0 0 136.38 40.53 Q 138.6 39.54 140.46 37.92 Z M 159.18 25.68 L 174.3 25.68 Q 174.3 23.356 173.771 21.657 A 8.051 8.051 0 0 0 173.31 20.49 A 8.139 8.139 0 0 0 172.323 18.932 A 6.113 6.113 0 0 0 170.7 17.52 Q 169.08 16.56 167.28 16.56 A 6.977 6.977 0 0 0 164.536 17.138 A 8.82 8.82 0 0 0 163.59 17.61 Q 161.76 18.66 160.53 20.7 Q 159.308 22.726 159.182 25.64 A 15.032 15.032 0 0 0 159.18 25.68 Z M 268.86 4.62 Q 270.42 1.98 273.06 0.48 Q 275.7 1.86 277.08 4.5 Q 275.58 7.08 272.88 8.64 Q 270.24 7.26 268.86 4.62 Z" vector-effect="non-scaling-stroke"/></g></svg>